<?xml version="1.0" encoding="UTF-8" standalone="no"?>
<svg
   xmlns:dc="http://purl.org/dc/elements/1.1/"
   xmlns:cc="http://creativecommons.org/ns#"
   xmlns:rdf="http://www.w3.org/1999/02/22-rdf-syntax-ns#"
   xmlns:svg="http://www.w3.org/2000/svg"
   xmlns="http://www.w3.org/2000/svg"
   xmlns:sodipodi="http://sodipodi.sourceforge.net/DTD/sodipodi-0.dtd"
   xmlns:inkscape="http://www.inkscape.org/namespaces/inkscape"
   id="Layer_2"
   data-name="Layer 2"
   viewBox="0 0 152.99999 79.98"
   version="1.1"
   sodipodi:docname="logo_light.svg"
   width="153"
   height="79.980003"
   inkscape:version="1.0.1 (3bc2e813f5, 2020-09-07)">
  <metadata
     id="metadata51">
    <rdf:RDF>
      <cc:Work
         rdf:about="">
        <dc:format>image/svg+xml</dc:format>
        <dc:type
           rdf:resource="http://purl.org/dc/dcmitype/StillImage" />
        <dc:title></dc:title>
      </cc:Work>
    </rdf:RDF>
  </metadata>
  <sodipodi:namedview
     pagecolor="#ffffff"
     bordercolor="#666666"
     borderopacity="1"
     objecttolerance="10"
     gridtolerance="10"
     guidetolerance="10"
     inkscape:pageopacity="0"
     inkscape:pageshadow="2"
     inkscape:window-width="1920"
     inkscape:window-height="1017"
     id="namedview49"
     showgrid="false"
     inkscape:zoom="1.6920275"
     inkscape:cx="354.8783"
     inkscape:cy="10.836712"
     inkscape:window-x="-8"
     inkscape:window-y="-8"
     inkscape:window-maximized="1"
     inkscape:current-layer="Layer_2" />
  <defs
     id="defs11">
    <style
       id="style2">
      .cls-1 {
        fill: url(#linear-gradient);
      }

      .cls-1, .cls-2, .cls-3, .cls-4 {
        stroke-width: 0px;
      }

      .cls-2 {
        fill: #6a0cf8;
      }

      .cls-3 {
        fill: #fff;
      }

      .cls-4 {
        fill: #309;
      }
    </style>
    <linearGradient
       id="linear-gradient"
       x1="0"
       y1="39.990002"
       x2="153.12"
       y2="39.990002"
       gradientUnits="userSpaceOnUse">
      <stop
         offset=".13"
         stop-color="#6a0cf8"
         id="stop4" />
      <stop
         offset=".56"
         stop-color="#fd16b8"
         id="stop6" />
      <stop
         offset=".97"
         stop-color="#fdba7f"
         id="stop8" />
    </linearGradient>
  </defs>
  <g
     id="Layer_1-2"
     data-name="Layer 1">
    <g
       id="g37">
      <g
         id="g25">
        <path
           class="cls-3"
           d="m 408.48,25.24 h 5.42 v 4.86 c 3.63,-4.94 8.35,-6.49 13.82,-5.93 5.49,0.56 9.65,3.38 12.41,7.92 1.69,-1.67 3.19,-3.46 4.98,-4.88 7.48,-5.93 23.64,-4.35 26.62,10.68 0.31,1.58 0.48,3.21 0.49,4.83 0.05,8.32 0.02,16.65 0.02,24.97 0,0.22 -0.03,0.43 -0.05,0.75 h -5.5 v -1.5 c 0,-7.67 0.08,-15.33 -0.05,-23 -0.04,-2.42 -0.33,-4.92 -1.03,-7.23 -1.48,-4.89 -5.44,-7.56 -10.61,-7.59 -5.18,-0.04 -9.15,2.58 -10.78,7.39 -0.63,1.88 -1.05,3.92 -1.08,5.9 -0.12,8.15 -0.06,16.29 -0.07,24.44 0,0.52 0,1.03 0,1.62 h -5.54 c 0,-0.48 0,-0.98 0,-1.48 0,-7.75 0.1,-15.51 -0.06,-23.26 -0.05,-2.54 -0.44,-5.18 -1.26,-7.57 -1.63,-4.75 -5.6,-7.13 -10.85,-7.04 -4.98,0.09 -8.85,2.72 -10.33,7.43 -0.69,2.18 -1.03,4.54 -1.07,6.82 -0.13,7.84 -0.05,15.68 -0.05,23.52 0,0.48 0,0.96 0,1.55 h -5.44 v -43.2 z"
           id="path13" />
        <path
           class="cls-3"
           d="M 392.39,32.68 V 9.98 h 5.45 v 58.45 h -5.43 v -7.68 c -4.96,6.61 -11.33,9.32 -19.06,8.73 -6.29,-0.48 -11.62,-3.08 -15.82,-7.84 -7.79,-8.81 -7.11,-22.82 1.4,-31.07 8.06,-7.81 24.22,-10.01 33.46,2.11 z m 0.28,14.33 c 0.06,-9.89 -7.62,-17.85 -17.3,-17.92 -10.08,-0.07 -17.7,7.57 -17.74,17.81 -0.04,10.13 7.53,17.64 17.84,17.68 9.44,0.04 17.14,-7.84 17.2,-17.57 z"
           id="path15" />
        <path
           class="cls-3"
           d="m 338.47,32.97 v -7.72 h 5.43 v 43.22 h -5.36 v -7.29 c -4.6,5.71 -10.48,8.54 -17.71,8.34 -7.15,-0.19 -13.24,-2.9 -17.72,-8.57 -7.42,-9.39 -6.39,-22.88 2.23,-30.7 4.88,-4.42 10.66,-6.43 17.21,-6.16 6.6,0.28 11.88,3.11 15.93,8.87 z m 0.29,14 c 0.03,-9.86 -7.72,-17.84 -17.35,-17.88 -10.06,-0.04 -17.66,7.65 -17.68,17.88 -0.02,10.04 7.53,17.58 17.61,17.61 9.66,0.03 17.39,-7.79 17.42,-17.61 z"
           id="path17" />
        <path
           class="cls-3"
           d="m 498.6,25.26 h 5.38 v 5.36 c 0.34,-0.27 0.52,-0.36 0.63,-0.5 4,-5.11 9.42,-6.58 15.57,-5.9 10.47,1.16 15.94,8.99 16.24,18.18 0.28,8.45 0.11,16.91 0.14,25.36 0,0.21 -0.05,0.42 -0.08,0.69 h -5.47 c 0,-0.51 0,-1.01 0,-1.52 -0.02,-8.02 0.1,-16.04 -0.11,-24.05 -0.14,-5.34 -2.24,-9.85 -7.25,-12.39 -8.15,-4.14 -17.55,0.61 -19.23,9.68 -0.28,1.5 -0.35,3.05 -0.36,4.57 -0.04,7.4 -0.02,14.81 -0.02,22.21 v 1.49 h -5.44 z"
           id="path19" />
        <path
           class="cls-3"
           d="M 482.77,68.46 V 25.24 h 5.41 v 43.22 z"
           id="path21" />
        <path
           class="cls-3"
           d="M 482.78,19.81 V 9.99 h 5.39 v 9.82 z"
           id="path23" />
      </g>
      <g
         id="g35">
        <path
           class="cls-3"
           d="m 262.8,30.14 v -5.42 h 9.55 v 43.71 h -9.51 v -5.26 c -0.54,0.51 -0.82,0.77 -1.11,1.04 -6.61,6.28 -16.71,7.62 -24.58,3.09 -6.22,-3.59 -9.53,-9.26 -10.71,-16.2 -1.31,-7.7 0.27,-14.74 5.48,-20.72 6.62,-7.59 18.71,-10.12 27.93,-2.96 0.98,0.76 1.84,1.69 2.94,2.72 z M 250.74,60.2 c 3.83,-0.09 7.53,-2.28 9.92,-6.59 1.64,-2.97 2.04,-6.18 1.62,-9.54 -1.01,-8.05 -8.93,-13.25 -16.6,-10.67 -5.62,1.89 -8.36,6.19 -9.05,11.92 -0.96,7.87 5.19,14.89 14.12,14.88 z"
           id="path27" />
        <path
           class="cls-3"
           d="m 186.66,10.02 h 10.4 v 34.97 l 0.26,0.14 c 0.26,-0.35 0.54,-0.68 0.79,-1.04 4.16,-6.12 8.33,-12.23 12.45,-18.38 0.53,-0.79 1.08,-1.07 2.02,-1.05 3.5,0.06 7.01,0.02 10.82,0.02 -5.35,7.28 -10.57,14.37 -15.83,21.52 5.92,7.41 11.82,14.79 17.89,22.38 -2.67,0 -5.05,0.01 -7.44,0 -1.96,-0.01 -4.66,0 -5.8,-0.27 -0.23,-0.06 -2.37,-2.93 -3.5,-4.49 -3.52,-4.86 -7.04,-9.72 -10.56,-14.57 -0.25,-0.35 -0.52,-0.69 -1.01,-1.34 v 20.61 h -10.48 v -58.5 z"
           id="path29" />
        <path
           class="cls-3"
           d="m 280.5,24.73 h 10.36 V 68.47 H 280.5 Z"
           id="path31" />
        <path
           class="cls-3"
           d="m 290.85,19.57 h -10.38 v -9.54 h 10.38 z"
           id="path33" />
      </g>
    </g>
    <g
       id="g45">
      <path
         class="cls-2"
         d="m 124.83,79.98 c -10.68,0 -20.73,-4.16 -28.28,-11.72 L 82.41,54.12 68.27,68.26 C 60.71,75.81 50.67,79.98 39.99,79.98 29.31,79.98 19.26,75.82 11.71,68.26 -3.9,52.67 -3.9,27.29 11.7,11.7 27.3,-3.9 52.67,-3.9 68.27,11.7 L 82.41,25.84 96.55,11.7 c 15.6,-15.59 40.97,-15.6 56.57,0 l -14.14,14.14 c -7.8,-7.8 -20.49,-7.8 -28.28,0 L 96.56,39.98 110.7,54.12 c 3.78,3.78 8.8,5.86 14.14,5.86 5.34,0 10.36,-2.08 14.14,-5.86 l 14.14,14.14 c -7.56,7.55 -17.6,11.72 -28.28,11.72 z M 39.98,19.99 c -5.12,0 -10.24,1.95 -14.14,5.85 -7.8,7.8 -7.8,20.49 0,28.28 7.8,7.8 20.49,7.8 28.28,0 L 68.26,39.98 54.12,25.84 c -3.9,-3.9 -9.02,-5.85 -14.14,-5.85 z"
         id="path39" />
      <path
         class="cls-1"
         d="M 11.7,11.7 C 3.9,19.49 0,29.74 0,39.98 h 19.99 c 0,-5.12 1.95,-10.24 5.85,-14.14 3.9,-3.9 9.02,-5.85 14.14,-5.85 5.12,0 10.24,1.95 14.14,5.85 L 68.26,39.98 82.4,54.12 96.54,68.26 c 7.56,7.55 17.6,11.72 28.28,11.72 10.68,0 20.73,-4.16 28.28,-11.72 L 138.96,54.12 c -3.78,3.78 -8.8,5.86 -14.14,5.86 -5.34,0 -10.36,-2.08 -14.14,-5.86 L 96.54,39.98 v 0 c 0,0 -14.14,-14.14 -14.14,-14.14 L 68.26,11.7 C 52.66,-3.89 27.29,-3.9 11.69,11.7 Z"
         id="path41" />
      <rect
         class="cls-4"
         x="72.410004"
         y="29.98"
         width="20"
         height="20"
         transform="rotate(-45,82.408333,39.975351)"
         id="rect43" />
    </g>
  </g>
</svg>
